<?xml version="1.0" encoding="utf-8"?>
<!-- Generator: Adobe Illustrator 21.1.0, SVG Export Plug-In . SVG Version: 6.00 Build 0)  -->
<svg version="1.1" id="Layer_2_1_" xmlns="http://www.w3.org/2000/svg" xmlns:xlink="http://www.w3.org/1999/xlink" x="0px" y="0px"
	 viewBox="0 0 1125 1125" style="enable-background:new 0 0 1125 1125;" xml:space="preserve">
<style type="text/css">
	.st0{fill:#FFFFFF;}
</style>
<g>
	<path class="st0" d="M564.3,526.6c21.1-33.6,39.3-69.9,54.3-108.7c15.1-38.8,26.1-79.4,33-121.6H408.5v388.2
		c29.3-18.1,57.4-40.5,84.1-67.3S543.3,560.3,564.3,526.6z"/>
	<path class="st0" d="M0.2,0v1125h1125V0H0.2z M900.1,291.1c-17.3,73.3-41.6,145.1-73.1,215.5c-31.5,70.3-69.5,136.7-113.9,199.3
		c-44.4,62.5-94.3,118.2-149.5,166.9c-55.1,48.7-115.1,88.6-179.8,119.7s-132.4,49.6-203.1,55.6V76.3H926
		C926,146.2,917.5,217.8,900.1,291.1z"/>
</g>
</svg>
